<svg xmlns="http://www.w3.org/2000/svg" width="1510.688" height="475.56" viewBox="0 0 1510.688 475.56">
  <g id="Group_241" data-name="Group 241" transform="translate(63.544 -37.12)">
    <g id="Group_240" data-name="Group 240">
      <path id="Path_59" data-name="Path 59" d="M369.826,236.971A491.164,491.164,0,0,1,516.7,259.306c49.21,15.476,97.217,36.651,143.644,57.129,47.322,20.873,96.255,42.457,146.435,57.985,93.276,28.8,196.249,28.462,289.953-.954l.129.912c-93.786,29.442-196.851,29.782-290.208.955-50.207-15.536-99.152-37.125-146.486-58-46.415-20.472-94.41-41.642-143.595-57.11-93.666-29.422-196.64-29.761-289.954-.955-37.118,11.482-63.464,28.2-91.357,45.9C88.673,334.731,40.5,365.3-63.508,374.388l-.036-.932c103.9-9.075,152.022-39.614,198.561-69.148,27.922-17.719,54.3-34.456,91.474-45.957A486.891,486.891,0,0,1,369.826,236.971Z" fill="#e6e7e8"/>
      <path id="Path_60" data-name="Path 60" d="M418.946,239.075c37.9,0,72.7,4.544,105.369,13.588,52.027,14.626,102.216,40.214,150.753,64.959,45.377,23.135,92.3,47.058,140.931,62.2,87.358,27.122,171.651,8.413,269.255-13.25q12.621-2.8,25.51-5.631l.09.923q-12.892,2.816-25.508,5.631c-97.662,21.677-182.006,40.4-269.475,13.24-48.67-15.156-95.61-39.088-141-62.232-48.516-24.734-98.684-50.312-150.665-64.926-80.246-22.217-173.526-17.257-293.564,15.6-36.733,10.079-61.835,22.731-88.411,36.127C97.178,328.017,50.6,351.5-56.869,360.976l-.037-.932c107.381-9.472,153.923-32.931,198.932-55.617,25.428-12.817,51.721-26.069,88.5-36.16C301.791,248.756,363.653,239.075,418.946,239.075Z" fill="#e6e7e8"/>
      <path id="Path_61" data-name="Path 61" d="M459.712,237.907a307.178,307.178,0,0,1,72.219,8.113c53.564,13.312,104.688,42.9,154.13,71.51,44.639,25.834,90.8,52.547,139.158,67.7,63.968,19.965,121.788,4.87,188.736-12.609,34.5-9.008,70.174-18.322,110.835-24.2l.06.928c-40.636,5.872-76.3,15.183-110.787,24.187-67.012,17.5-124.886,32.605-188.972,12.6C776.683,370.974,730.5,344.247,685.834,318.4c-49.412-28.594-100.505-58.163-154-71.459-85.188-20.519-175.128,1.88-262.109,23.539-11.542,2.874-23.477,5.845-35.064,8.625-34.894,8.388-59.195,17.278-82.7,25.876-45.669,16.707-88.8,32.487-202.191,42.583l-.037-.932c113.331-10.089,156.439-25.86,202.078-42.557,23.513-8.6,47.827-17.5,82.747-25.891,11.585-2.779,23.519-5.75,35.061-8.624C332.4,253.925,396.725,237.907,459.712,237.907Z" fill="#e6e7e8"/>
      <path id="Path_62" data-name="Path 62" d="M489.945,234.544a245.021,245.021,0,0,1,49.6,4.833c54.671,11.845,106.312,45.28,156.254,77.614,44.308,28.688,90.126,58.351,138.638,73.642,56,17.57,103.873.671,159.3-18.895,41.045-14.488,87.566-30.908,145.073-35.834l.037.932c-57.454,4.919-103.947,21.331-144.965,35.81-55.5,19.592-103.439,36.511-159.575,18.9-48.576-15.311-94.421-44.993-138.758-73.7-49.9-32.31-101.508-65.719-156.094-77.547-70.549-14.535-144.65,6.514-216.311,26.869-27.906,7.927-56.762,16.124-84.47,21.855-23.616,4.9-42.121,9.107-58.448,12.824-55.192,12.564-88.506,20.147-223.82,32.3l-.037-.931c135.285-12.153,168.589-19.734,223.762-32.293,16.33-3.718,34.837-7.93,58.456-12.827,27.693-5.727,56.542-13.921,84.441-21.846C378.123,250.6,434.667,234.544,489.945,234.544Z" fill="#e6e7e8"/>
      <path id="Path_63" data-name="Path 63" d="M512.519,229.869a203.56,203.56,0,0,1,34.643,2.866c55.581,10.31,107.55,47.518,157.809,83.5,44.16,31.618,89.824,64.311,138.687,79.8,51.961,16.38,94.129-3.133,142.955-25.73,44.829-20.748,95.641-44.263,166.223-46.922l.016.933c-70.5,2.654-121.263,26.15-166.054,46.88-48.909,22.634-91.148,42.185-143.27,25.751-48.936-15.513-94.634-48.232-138.828-79.873-50.213-35.95-102.135-73.126-157.613-83.416-63.837-11-130.436,11.781-194.845,33.814C316.036,279.86,278.6,292.668,242.7,298.942c-57.178,10.013-81.493,10.774-121.776,12.036-32.339,1.011-76.628,2.4-157.871,9.759l-.037-.931c81.255-7.362,125.551-8.748,157.895-9.761,40.264-1.261,64.568-2.021,121.716-12.029,35.868-6.268,73.29-19.07,109.48-31.45C405,248.471,459.377,229.869,512.519,229.869Z" fill="#e6e7e8"/>
      <path id="Path_64" data-name="Path 64" d="M530.553,224.448a174.912,174.912,0,0,1,24.225,1.645c56.386,8.739,108.58,49.674,159.056,89.26,44.11,34.6,89.724,70.368,139.044,86.088,49.538,15.694,87.758-6.627,132.013-32.472,46.641-27.238,99.489-58.1,181.245-58.1h.72v.932h-.718c-81.648,0-134.426,30.827-181.019,58.037-44.349,25.9-82.648,48.269-132.37,32.516-49.4-15.748-95.057-51.552-139.2-86.175-50.424-39.546-102.563-80.438-158.827-89.158-60.146-8.409-122.5,17.028-182.8,41.625-41.362,16.873-84.133,34.32-125.2,40.215-48.911,7.032-72.556,3.846-102.494-.188-34.074-4.591-76.483-10.3-174.534-1.348l-.038-.931c98.1-8.962,140.532-3.244,174.628,1.35,29.9,4.029,53.526,7.212,102.377.189,41.019-5.888,83.764-23.325,125.1-40.187C424.056,246.412,477.9,224.449,530.553,224.448Z" fill="#e6e7e8"/>
      <path id="Path_65" data-name="Path 65" d="M545.813,218.572a153.638,153.638,0,0,1,16.581.879c57.127,7.149,107.154,49.789,160.12,94.933,44.12,37.6,89.742,76.489,139.584,92.462,47.94,15.26,83.127-9.893,123.87-39.015,43.612-31.172,97.487-69.668,184.169-69.673,3.529,0,7.1.064,10.737.194l-.015.933c-92.894-3.334-149.294,36.989-194.621,69.387-40.847,29.2-76.122,54.412-124.271,39.086-49.937-16-95.6-54.925-139.763-92.565C669.3,270.1,619.331,227.512,562.346,220.38c-57.946-6.26-117.655,22.2-175.4,49.732-44.962,21.436-91.455,43.6-136.21,48.667-47.4,5.367-70.478-2.054-97.2-10.65C118.945,297,79.737,284.39-23.673,293.912l-.039-.931c103.5-9.528,142.75,3.1,177.38,14.237,26.673,8.58,49.708,15.99,97.021,10.632,44.681-5.057,91.138-27.206,136.065-48.626C439.067,244.283,493,218.573,545.813,218.572Z" fill="#e6e7e8"/>
      <path id="Path_66" data-name="Path 66" d="M559.288,212.4q5.373,0,10.722.411c57.826,5.547,107.974,51.69,161.066,100.542,44.167,40.638,89.837,82.661,140.24,98.9,46.823,14.969,77.965-11.647,117.392-45.346,42.873-36.644,95.585-81.686,187.239-81.691,6.142,0,12.445.2,18.945.622l-.027.932c-103.328-6.678-160.171,41.907-205.846,80.946-37.977,32.461-70.778,60.5-117.833,45.449-50.509-16.271-96.226-58.336-140.437-99.016-53.025-48.789-103.108-94.873-160.775-100.406-56.58-4.385-114.573,27.31-170.651,57.966-47.675,26.063-96.973,53.013-144.568,56.992-47.105,3.933-68.961-7.557-94.262-20.861C127.3,290.383,89.675,270.6-17.034,280.5l-.039-.931c106.837-9.91,144.524,9.906,177.773,27.389,25.239,13.271,47.03,24.733,94.021,20.81,47.5-3.972,96.755-30.9,144.387-56.936C451.708,242.075,506,212.4,559.288,212.4Z" fill="#e6e7e8"/>
      <path id="Path_67" data-name="Path 67" d="M571.564,206.024c2.024,0,4.04.047,6.062.144,58.5,3.939,108.739,53.563,161.933,106.1,44.238,43.693,89.983,88.875,140.978,105.385,46.016,14.781,75.133-14.46,112-51.476,42.093-42.267,93.669-94.05,190.356-94.053q12.5,0,26.02,1.193l-.038.931c-113.548-10.168-170.347,46.871-215.989,92.7-36.987,37.139-66.2,66.473-112.478,51.614-51.109-16.548-96.9-61.778-141.19-105.519C686.1,260.582,635.922,211.027,577.6,207.1c-55.745-2.659-112.587,32.374-167.549,66.269-49.837,30.732-101.37,62.511-151.278,65.247-47.246,2.586-68.047-13-92.131-31.025-31.758-23.772-67.753-50.718-177.04-40.5l-.039-.932c109.453-10.228,145.531,16.777,177.359,40.6,24.009,17.971,44.745,33.482,91.828,30.928,49.8-2.73,101.277-34.477,151.062-65.178C462.847,239.8,517.627,206.027,571.564,206.024Z" fill="#e6e7e8"/>
      <path id="Path_68" data-name="Path 68" d="M583,199.506c.752,0,1.495.007,2.246.021,59.147,2.327,109.467,55.414,162.741,111.618,44.328,46.765,90.165,95.123,141.772,111.914,45.424,14.648,72.755-17.158,107.36-57.423,41.261-48.011,91.7-106.686,193.453-106.692a292.1,292.1,0,0,1,32.356,1.857l-.047.93c-123.62-13.765-180.043,51.89-225.378,104.64-34.733,40.417-62.168,72.339-107.876,57.6-51.731-16.831-97.621-65.244-142-112.063-53.2-56.121-103.441-109.129-162.393-111.447-55.3-1.071-111.332,37.413-165.544,74.616-51.63,35.432-105.019,72.07-156.89,73.458-47.578,1.236-68.357-19.371-90.358-41.2-30.31-30.071-64.662-64.152-176.195-53.663l-.039-.93c111.739-10.512,146.188,23.663,176.58,53.816,21.917,21.745,42.624,42.285,90,41.043,51.741-1.385,105.068-37.982,156.64-73.373C472.967,237.485,528.313,199.509,583,199.506Z" fill="#e6e7e8"/>
      <path id="Path_69" data-name="Path 69" d="M592.86,192.886c59.781.712,110.165,57.246,163.509,117.1,44.43,49.852,90.372,101.4,142.607,118.477,44.979,14.566,70.706-19.752,103.28-63.2,40.38-53.861,89.645-119.563,196.5-119.566a295.074,295.074,0,0,1,38.182,2.587l-.053.929c-133.617-17.432-189.4,56.965-234.215,116.745-32.706,43.624-58.54,78.081-103.829,63.417-52.367-17.12-98.365-68.732-142.849-118.644-53.26-59.758-103.564-116.2-163.135-116.913-55.035.483-110.585,42.431-164.306,83-53.147,40.135-108.1,81.636-161.677,81.636h-.059c-48.011-.068-67.808-25-88.768-51.4-28.862-36.35-61.57-77.545-175.165-66.794l-.039-.93c113.831-10.781,146.656,30.547,175.607,67.011,20.87,26.285,40.582,51.112,88.365,51.179h.059c53.427,0,108.31-41.447,161.395-81.535C482.057,235.368,537.674,193.369,592.86,192.886Z" fill="#e6e7e8"/>
      <path id="Path_70" data-name="Path 70" d="M601.825,186.235c59.808,0,109.894,59.544,162.9,122.559,44.542,52.953,90.6,107.709,143.472,125.073,44.65,14.516,68.91-22.263,99.625-68.825,21.841-33.107,46.594-70.632,83.959-97.353,43.213-30.9,95.28-41.346,159.177-31.921l-.062.927c-143.562-21.173-198.492,62.094-242.628,129-30.851,46.768-55.216,83.712-100.2,69.083-53.016-17.411-99.131-72.235-143.728-125.254-52.916-62.91-102.921-122.357-162.507-122.357-.447,0-.891,0-1.34.01-54.975,1.972-110.209,47.439-163.624,91.41-54.517,44.877-110.907,91.265-166.025,89.783-48.51-1.373-67.344-30.644-87.282-61.632-27.417-42.609-58.481-90.9-174.033-79.89l-.04-.93c115.828-11.044,147.014,37.419,174.523,80.174,19.847,30.845,38.593,59.979,86.844,61.346q1.3.035,2.6.035c54.142,0,109.523-45.59,163.111-89.7,53.481-44.024,108.783-89.548,163.916-91.525Q601.152,186.235,601.825,186.235Z" fill="#e6e7e8"/>
      <path id="Path_71" data-name="Path 71" d="M611.5,179.534c26.329,0,53.278,12.585,82.274,38.389,27.029,24.053,53.592,57.4,79.281,89.652,44.66,56.065,90.84,114.04,144.361,131.7,44.4,14.491,67.308-24.7,96.307-74.311,21.373-36.568,45.6-78.016,83.884-107.492,33.333-25.66,72.556-38.357,118.981-38.359a301.449,301.449,0,0,1,48.384,4.142l-.068.927c-153.479-24.972-207.389,67.275-250.711,141.4-29.134,49.848-52.147,89.22-96.912,74.61-53.672-17.707-99.911-75.756-144.629-131.9-52.33-65.7-101.821-127.824-161.037-127.824-1.165,0-2.327.024-3.5.073C553.065,183.96,498,232.979,444.754,280.383,389.026,329.995,331.4,381.3,274.859,378.288c-49.05-2.678-66.929-36.3-85.858-71.9-25.974-48.848-55.421-104.209-172.839-92.952l-.04-.931c117.75-11.288,147.3,44.276,173.368,93.3,18.837,35.425,36.63,68.886,85.392,71.549,56.359,3.005,113.9-48.233,169.553-97.774,53.315-47.465,108.446-96.545,163.658-99.978C609.226,179.558,610.364,179.534,611.5,179.534Z" fill="#e6e7e8"/>
      <path id="Path_72" data-name="Path 72" d="M621.227,172.778c26.163,0,51.966,12.586,80.708,39.249,27.115,25.154,52.527,58.741,79.431,94.3,44.783,59.191,91.091,120.4,145.269,138.348,44.228,14.492,65.866-27.063,93.259-79.67,20.857-40.054,44.5-85.453,83.651-117.718,45.4-37.412,102.785-49.37,175.439-36.555l-.073.927c-163.374-28.817-218.367,76.8-258.522,153.918-27.53,52.868-49.275,94.625-93.889,80.009-54.336-18-100.706-79.291-145.549-138.561C727.551,236.445,677.1,169.768,615.743,173.9c-55.226,4.847-110.228,57.444-163.418,108.309-28.462,27.217-57.892,55.361-86.759,75.491-32.364,22.57-60.716,32.549-86.686,30.51-49.616-3.98-66.547-41.976-84.471-82.2C169.873,250.933,142.064,188.511,22.8,200.024l-.041-.931c53.424-5.158,93.188,3.963,121.571,27.872,24.994,21.056,38.011,50.269,50.6,78.52,17.836,40.027,34.682,77.833,83.984,81.789,57.636,4.537,116.327-51.588,173.075-105.855,53.258-50.93,108.328-103.594,163.723-108.455Q618.471,172.778,621.227,172.778Z" fill="#e6e7e8"/>
      <path id="Path_73" data-name="Path 73" d="M630.569,165.988c25.832,0,51.3,12.9,79.521,40.135,27.2,26.25,52.64,61.555,79.574,98.935,44.91,62.326,91.351,126.775,146.19,145.022,44.111,14.507,64.556-29.368,90.439-84.912,20.3-43.561,43.307-92.933,83.28-128.021,34.078-29.914,75.5-44.727,125.6-44.728a312.228,312.228,0,0,1,57.829,5.8l-.078.926c-173.266-32.7-226.929,82.466-266.114,166.558-26.019,55.83-46.569,99.927-91.088,85.291-55.006-18.3-101.509-82.84-146.481-145.25C735.8,231.579,685.3,161.53,623.371,167.254,567.886,173.5,512.858,229.7,459.644,284.048c-28.978,29.6-58.942,60.2-88.345,81.932-32.965,24.367-61.877,34.883-88.4,32.143-50.2-5.285-66.184-47.669-83.106-92.542C176.689,244.309,150.49,174.866,29.44,186.61l-.041-.93c54.252-5.269,94.211,5.173,122.176,31.905,24.634,23.55,36.9,56.08,48.765,87.538,16.837,44.648,32.741,86.821,82.6,92.069,58.862,6.074,118.584-54.921,176.347-113.913,53.283-54.418,108.38-110.688,164.037-116.955Q626.957,165.988,630.569,165.988Z" fill="#e6e7e8"/>
      <path id="Path_74" data-name="Path 74" d="M639.739,159.166c25.556,0,50.738,13.225,78.5,41.046,27.282,27.339,52.749,64.358,79.712,103.552,45.042,65.472,91.617,133.175,147.123,151.721,44.038,14.53,63.354-31.62,87.808-90.048,19.706-47.086,42.042-100.453,82.8-138.4,47.361-44.094,109.95-57.618,191.337-41.342l-.082.924C1123.779,150,1071.549,274.8,1033.41,365.931c-24.584,58.741-44,105.134-88.473,90.464-55.679-18.6-102.319-86.4-147.423-151.963C744.041,226.7,693.534,153.279,631,160.612c-55.808,7.635-110.93,67.454-164.236,125.3-29.461,31.971-59.925,65.03-89.831,88.366-33.525,26.159-62.965,37.2-90.009,33.758-50.8-6.59-65.834-53.378-81.754-102.913C183.489,237.669,158.912,161.206,36.079,173.2l-.041-.931C91.1,166.9,131.255,178.645,158.8,208.193c24.273,26.034,35.79,61.872,46.929,96.531,15.841,49.288,30.8,95.843,81.244,102.386,60,7.636,120.708-58.236,179.418-121.949,53.376-57.924,108.569-117.82,164.551-125.478A75.558,75.558,0,0,1,639.739,159.166Z" fill="#e6e7e8"/>
      <path id="Path_75" data-name="Path 75" d="M648.763,152.317c25.325,0,50.257,13.55,77.62,41.975s52.854,67.154,79.845,108.156c45.174,68.629,91.887,139.6,148.065,158.441,44,14.574,62.244-33.82,85.337-95.086,19.083-50.626,40.713-108.008,82.21-148.83,48.278-47.494,113.433-61.818,199.186-43.791l-.087.924C1127.9,133.523,1077.2,268.042,1040.175,366.26c-23.22,61.6-41.558,110.259-86.018,95.539C897.8,442.893,851.019,371.827,805.782,303.1,752.276,221.817,701.744,145.047,638.626,153.97c-56.183,9.008-111.457,72.467-164.911,133.836-29.916,34.346-60.851,69.863-91.233,94.8-34.056,27.949-64,39.511-91.538,35.356-51.4-7.9-65.493-59.1-80.409-113.316C190.277,231.013,167.319,147.57,42.718,159.784l-.04-.93c55.862-5.48,96.208,7.582,123.341,39.933,23.911,28.509,34.679,67.649,45.093,105.5,14.843,53.947,28.863,104.9,79.895,112.742,61.109,9.224,122.726-61.535,182.327-129.962,53.523-61.448,108.867-124.989,165.23-134.024A72.8,72.8,0,0,1,648.763,152.317Z" fill="#e6e7e8"/>
      <path id="Path_76" data-name="Path 76" d="M72.108,144.271c44.916,0,78.129,14.858,101.118,45.1,23.548,30.976,33.568,73.409,43.26,114.445,13.844,58.624,26.921,114,78.553,123.133,62.152,10.818,121.87-61.449,185.1-137.954C533.854,224.006,589.4,156.806,646.181,146.4c29.166-4.823,57.231,8.513,88.343,41.964,27.441,29.5,52.958,69.939,79.974,112.745,45.31,71.8,92.162,146.034,149.015,165.182,44,14.616,61.214-35.978,83.006-100.033,31.337-92.109,72.8-213.9,217.8-213.92,21.259,0,44.718,2.614,70.724,8.325l-.092.922c-202.936-44.569-252.027,99.734-287.873,205.1-21.915,64.416-39.221,115.295-83.7,100.521-57.04-19.21-103.959-93.555-149.333-165.452-53.535-84.829-104.105-164.945-167.789-154.423-56.6,10.37-112.075,77.484-165.719,142.389-30.35,36.721-61.734,74.691-92.567,101.216-34.562,29.732-64.99,41.814-93,36.94-52.019-9.2-65.158-64.845-79.07-123.75-18.841-79.784-40.2-170.2-166.539-157.752l-.041-.93Q61.179,144.272,72.108,144.271Z" fill="#e6e7e8"/>
      <path id="Path_77" data-name="Path 77" d="M77.978,130.893c46,0,79.639,16.153,102.448,49.045,23.187,33.436,32.461,79.154,41.429,123.368C234.7,366.624,246.83,426.43,299.07,436.867c28.341,5.566,59.086-6.99,94.005-38.386,31.223-28.075,63.016-68.472,93.763-107.541C540.779,222.4,596.557,151.524,653.8,139.762a68.319,68.319,0,0,1,12.67-1.2c24.966,0,49.491,14.208,76.19,43.877,27.521,30.582,53.062,72.714,80.1,117.321C868.208,374.727,915.2,452.249,972.732,471.7c44.023,14.674,60.254-38.09,80.8-104.895,30.187-98.153,70.1-227.864,220.418-227.875,22.463,0,47.374,2.893,75.1,9.222l-.094.922C1136.117,100.5,1088.713,254.64,1054.1,367.191c-20.663,67.187-36.99,120.248-81.505,105.416C914.87,453.093,867.81,375.459,822.3,300.382c-53.565-88.361-104.154-171.825-168.418-159.695C596.824,152.411,541.116,223.2,487.243,291.65c-30.766,39.093-62.578,79.516-93.845,107.63-35.045,31.509-65.925,44.106-94.411,38.512-52.637-10.518-64.826-70.6-77.729-134.215-8.945-44.1-18.2-89.7-41.266-122.969-26.172-37.739-66.731-53.322-124-47.649l-.041-.93Q67.406,130.895,77.978,130.893Z" fill="#e6e7e8"/>
      <path id="Path_78" data-name="Path 78" d="M83.951,117.51c47.028,0,81.067,17.446,103.672,52.985,22.825,35.887,31.354,84.885,39.6,132.271,11.839,68.026,23.023,132.28,75.875,144.019,28.781,6.286,59.969-6.778,95.347-39.937,31.641-29.657,63.847-72.5,94.993-113.94,54.2-72.108,110.247-146.671,167.977-159.785,29.7-6.287,58.1,7.495,89.378,43.374,27.6,31.654,53.162,75.483,80.226,121.885C876.6,376.535,923.74,457.35,981.952,477.1c44.077,14.742,59.355-40.167,78.7-109.681,16.222-58.295,36.411-130.846,79.971-180.461,36.088-41.105,83.255-61.488,142.956-61.492q36.564,0,79.489,10.164l-.1.922c-222.757-52.616-268.408,111.439-301.742,231.225-19.457,69.918-34.825,125.147-79.414,110.233C923.4,458.191,876.2,377.261,830.55,298.994c-53.592-91.885-104.211-178.665-169.042-164.949C603.964,147.118,547.989,221.587,493.856,293.6c-31.165,41.462-63.392,84.336-95.077,114.034-35.51,33.282-66.83,46.391-95.77,40.07C249.748,435.878,238.514,371.333,226.62,303c-8.228-47.27-16.736-96.151-39.451-131.863-25.757-40.5-66.5-57.371-124.533-51.591l-.043-.93Q73.688,117.51,83.951,117.51Z" fill="#e6e7e8"/>
      <path id="Path_79" data-name="Path 79" d="M90.013,104.123c48.022,0,82.423,18.736,104.8,56.917,22.468,38.332,30.251,90.6,37.779,141.153,10.835,72.751,21.068,141.467,74.538,154.511,29.211,7.009,60.827-6.561,96.65-41.478,32.045-31.236,64.652-76.53,96.184-120.331,54.486-75.687,110.827-153.951,169.071-168.413a64.692,64.692,0,0,1,14.787-1.747c24.713,0,48.931,14.872,75.1,45.818,27.677,32.723,53.262,78.244,80.349,126.436,45.722,81.347,93,165.461,151.9,185.517,44.144,14.813,58.51-42.208,76.695-114.393,15.546-61.71,34.894-138.508,79.093-191.1,51.613-61.411,126.887-79.042,230.122-53.9l-.1.92c-103.052-25.1-178.164-7.53-229.631,53.709-44.065,52.43-63.378,129.095-78.9,190.7-18.292,72.611-32.741,129.964-77.418,114.975C931.933,463.29,884.586,379.053,838.8,297.589c-53.62-95.4-104.274-185.5-169.662-170.186C611.08,141.819,554.81,219.984,500.391,295.577c-31.552,43.829-64.179,89.15-96.268,120.429-35.96,35.052-67.72,48.668-97.092,41.618-53.888-13.146-64.166-82.161-75.048-155.229-7.51-50.436-15.276-102.588-37.639-140.741-25.346-43.245-66.262-61.405-125.07-55.52l-.042-.93Q80.018,104.124,90.013,104.123Z" fill="#e6e7e8"/>
      <path id="Path_80" data-name="Path 80" d="M96.146,90.733c48.979,0,83.725,20.024,105.86,60.842,22.108,40.769,29.15,96.307,35.959,150.016,9.825,77.49,19.1,150.68,73.2,165.033,29.635,7.731,61.663-6.34,97.919-43.011,32.439-32.81,65.433-80.547,97.341-126.712,54.794-79.277,111.453-161.252,170.233-177.059,30.227-7.746,58.954,6.474,90.4,44.761,27.753,33.788,53.36,81,80.471,130.976,45.86,84.546,93.282,171.97,152.863,192.331,20.335,6.842,35.414-1.238,47.453-25.43,11.029-22.165,18.58-55.273,27.322-93.608,14.854-65.132,33.341-146.19,78.159-201.775,36.9-45.76,86.4-68.457,150.053-68.459q40.065,0,87.715,11.96l-.1.92c-107.422-26.9-185.031-8.483-237.264,56.3-44.684,55.416-63.138,136.336-77.967,201.358-17.165,75.267-30.72,134.718-75.507,119.647C940.461,468.387,892.97,380.835,847.043,296.166c-53.645-98.9-104.314-192.316-170.281-175.4-58.589,15.755-115.18,97.631-169.906,176.809-31.928,46.193-64.942,93.959-97.425,126.815-36.4,36.813-68.579,50.932-98.378,43.157-54.517-14.464-63.836-87.963-73.7-165.777-6.795-53.6-13.822-109.017-35.831-149.6-24.938-45.986-66.025-65.43-125.607-59.441l-.042-.93A202.78,202.78,0,0,1,96.146,90.733Z" fill="#e6e7e8"/>
      <path id="Path_81" data-name="Path 81" d="M102.343,77.34c49.912,0,84.973,21.306,106.852,64.758,21.752,43.2,28.051,102,34.144,158.861,8.812,82.242,17.135,159.922,71.853,175.583,30.049,8.454,62.482-6.113,99.16-44.533,32.821-34.381,66.193-84.558,98.468-133.084C567.941,216.048,624.939,130.349,684.273,113.2a61.447,61.447,0,0,1,16.5-2.307c58.949-.009,105.72,89.236,155,183.258,46,87.754,93.565,178.5,153.832,199.162,20.386,6.876,35.314-1.589,46.976-26.652,10.692-22.98,17.768-57.267,25.96-96.969,14.147-68.563,31.754-153.892,77.175-212.489,24.908-32.136,55.1-52.981,92.309-63.727,42.2-12.19,93.707-10.642,153.076,4.6L1405,99c-111.8-28.705-191.894-9.435-244.871,58.911-45.284,58.421-62.862,143.608-76.986,212.057-16.072,77.889-28.767,139.413-73.671,124.257-60.485-20.742-108.119-111.616-154.185-199.5-53.673-102.392-104.368-199.107-170.9-180.609C625.247,131.21,568.318,216.806,513.264,299.582c-32.294,48.555-65.687,98.762-98.553,133.191-36.824,38.573-69.415,53.188-99.636,44.685-55.149-15.784-63.506-93.778-72.352-176.352-6.081-56.75-12.369-115.433-34.028-158.447C184.163,93.938,142.9,73.22,82.553,79.309l-.042-.93A197.535,197.535,0,0,1,102.343,77.34Z" fill="#e6e7e8"/>
      <path id="Path_82" data-name="Path 82" d="M108.588,63.942c50.817,0,86.187,22.591,107.795,68.668,21.4,45.624,26.956,107.678,32.333,167.69,7.8,87.007,15.16,169.188,70.506,186.161,30.455,9.18,63.286-5.882,100.376-46.047,33.2-35.947,66.938-88.562,99.569-139.445,55.465-86.488,112.819-175.921,172.725-194.4a60.262,60.262,0,0,1,17.345-2.614c59.058-.009,105.676,91.925,154.789,188.76,46.139,90.97,93.847,185.036,154.8,206.009,20.445,6.922,35.229-1.932,46.528-27.853,10.369-23.784,16.98-59.239,24.637-100.291,13.428-72,30.141-161.611,76.145-223.238,25.238-33.81,56.135-55.713,94.458-66.961,43.489-12.766,96.824-11.02,158.522,5.188l-.108.918c-116.177-30.519-198.756-10.385-252.455,61.549C1120.687,209.477,1104,298.94,1090.6,370.825c-7.67,41.127-14.294,76.645-24.714,100.549-11.462,26.294-26.457,35.272-47.192,28.255-61.178-21.05-108.957-115.254-155.162-206.356-53.7-105.875-104.421-205.879-171.512-185.8-59.713,18.424-117,107.751-172.4,194.136-32.651,50.912-66.413,103.558-99.654,139.555-37.24,40.328-70.237,55.44-100.867,46.206-55.783-17.106-63.175-99.607-71-186.952-5.367-59.9-10.917-121.84-32.226-167.278C191.744,81.7,150.314,59.7,89.192,65.9l-.043-.931A192.78,192.78,0,0,1,108.588,63.942Z" fill="#e6e7e8"/>
      <path id="Path_83" data-name="Path 83" d="M114.882,50.545c51.7,0,87.36,23.869,108.689,72.567,21.043,48.043,25.865,113.348,30.528,176.5,6.776,91.785,13.176,178.478,69.154,196.766,30.851,9.906,64.075-5.648,101.57-47.553,33.562-37.511,67.667-92.561,100.649-145.8,55.823-90.108,113.547-183.284,174.038-203.1A59.2,59.2,0,0,1,717.656,97c59.178,0,105.662,94.615,154.617,194.256,46.277,94.192,94.13,191.592,155.777,212.871,20.506,6.961,35.157-2.266,46.107-29.036,10.054-24.578,16.215-61.187,23.349-103.576,12.7-75.448,28.5-169.345,75.073-234.019,25.56-35.493,57.153-58.461,96.587-70.217,44.77-13.346,99.937-11.4,163.966,5.772l-.111.918c-120.56-32.34-205.613-11.336-260.016,64.21-46.438,64.485-62.216,158.234-74.893,233.563-7.146,42.464-13.318,79.136-23.422,103.834-11.109,27.16-25.974,36.522-46.78,29.46-61.874-21.357-109.8-118.9-156.141-213.229C818.044,182.454,767.3,79.16,699.643,100.835c-60.3,19.757-117.954,112.824-173.713,202.827-33,53.268-67.125,108.35-100.733,145.911-18.087,20.216-34.661,33.99-50.668,42.113-17.961,9.113-34.775,10.946-51.409,5.6C266.7,478.86,260.279,391.843,253.478,299.716c-4.655-63.045-9.468-128.237-30.43-176.093-23.726-54.17-65.337-77.437-127.217-71.14l-.042-.93A188.625,188.625,0,0,1,114.882,50.545Z" fill="#e6e7e8"/>
      <path id="Path_84" data-name="Path 84" d="M121.6,37.12c25,0,45.922,5.649,63.564,17.1,19.479,12.647,34.393,32.071,45.592,59.382,20.69,50.456,24.774,119,28.724,185.3,5.754,96.575,11.188,187.792,67.8,207.4,31.243,10.632,64.855-5.412,102.745-49.052,33.923-39.071,68.383-96.553,101.708-152.142,56.2-93.738,114.3-190.667,175.393-211.822a58.323,58.323,0,0,1,18.906-3.248c59.321-.009,105.671,97.293,154.483,199.742,46.416,97.423,94.413,198.162,156.751,219.749,12.37,4.209,22.445,2.438,30.8-5.42,19.9-18.7,27.823-71.025,37-131.608,11.437-75.476,25.552-168.612,68.01-235.847-41.707,66.4-55.585,158.078-67.4,236.052-9.211,60.786-17.167,113.283-37.282,132.192-8.5,8-18.734,9.809-31.275,5.541-62.57-21.668-110.637-122.554-157.121-220.119C826.257,177.5,775.485,70.943,707.269,94.192,646.374,115.28,588.332,212.1,532.2,305.728c-33.345,55.621-67.824,113.135-101.792,152.258-18.281,21.055-35.039,35.368-51.231,43.756-18.168,9.413-35.19,11.2-52.036,5.467-57.052-19.758-62.507-111.3-68.282-208.224-3.943-66.185-8.021-134.624-28.634-184.894C206.9,57.206,165.108,32.667,102.47,39.07l-.043-.929A188.5,188.5,0,0,1,121.6,37.12Zm1222.12,7.993c31.281,0,65.848,5.142,103.42,15.417l-.112.917c-117.877-32.233-192.519-11.9-241.254,34.642a175.162,175.162,0,0,1,71.96-41.911C1297.715,48.133,1319.755,45.113,1343.724,45.113Z" fill="#e6e7e8"/>
    </g>
  </g>
</svg>
